<?xml version="1.0" encoding="iso-8859-1"?>
<!-- Generator: Adobe Illustrator 19.0.0, SVG Export Plug-In . SVG Version: 6.00 Build 0)  -->
<svg version="1.1" id="Capa_1" xmlns="http://www.w3.org/2000/svg" xmlns:xlink="http://www.w3.org/1999/xlink" x="0px" y="0px"
	 viewBox="0 0 459.755 459.755" style="enable-background:new 0 0 459.755 459.755;" xml:space="preserve">
<g>
	<path style="fill:#4DCFE0;" d="M295.184,135.837H169.796"/>
	<path style="fill:#4DCFE0;" d="M384,135.837h-57.469H138.449H75.755c-8.882,0-15.673,6.792-15.673,15.673v261.224
		c0,26.122,20.898,47.02,47.02,47.02h245.551c26.122,0,47.02-20.898,47.02-47.02V151.51
		C399.673,142.629,392.882,135.837,384,135.837z"/>
</g>
<path style="fill:#3A2C51;" d="M138.449,224.653c0,8.882,6.792,15.673,15.673,15.673s15.673-6.792,15.673-15.673v-88.816V94.041
	c0-34.482,28.212-62.694,62.694-62.694c16.718,0,32.392,6.792,44.408,18.286c11.494,11.494,18.286,27.69,18.286,44.408v41.796
	v88.816c0,8.882,6.792,15.673,15.673,15.673c8.882,0,15.673-6.792,15.673-15.673v-88.816V94.041c0-24.555-9.927-49.11-27.69-66.351
	C281.078,9.927,257.567,0,232.49,0c-51.722,0-94.041,42.318-94.041,94.041v41.796V224.653z"/>
<g>
</g>
<g>
</g>
<g>
</g>
<g>
</g>
<g>
</g>
<g>
</g>
<g>
</g>
<g>
</g>
<g>
</g>
<g>
</g>
<g>
</g>
<g>
</g>
<g>
</g>
<g>
</g>
<g>
</g>
</svg>
